{"title":"Terminator.Genisys.2015.720p.BluRay.AC3.x264-SHOW","uid":12490234,"size":5874146815,"categoryP":"video","categoryS":"hd___movies","magnet":"?xt=urn:btih:fd4182c3e18cde8959d0802a1ad0ce8668b00ec0&amp;dn=Terminator.Genisys.2015.720p.BluRay.AC3.x264-SHOW&amp;tr=udp%3A%2F%2Ftracker.leechers-paradise.org%3A6969&amp;tr=udp%3A%2F%2Fzer0day.ch%3A1337&amp;tr=udp%3A%2F%2Fopen.demonii.com%3A1337&amp;tr=udp%3A%2F%2Ftracker.coppersurfer.tk%3A6969&amp;tr=udp%3A%2F%2Fexodus.desync.com%3A6969","seeders":0,"leechers":0,"uploader":"gaoqingkongxiaobian","files":4,"time":1443167743,"description":"General\r\nUnique ID                      : 208549655323321129889838442866071726337 (0x9CE533DE1C338FA28344BC88FE8E6901)\r\nComplete name                  : Terminator.Genisys.2015.720p.BluRay.AC3.x264-SHOW.mkv\r\nFormat                         : Matroska\r\nFormat version                 : Version 4 / Version 2\r\nFile size                      : 5.46 GiB\r\nDuration                       : 2h 5mn\r\nOverall bit rate               : 6 223 Kbps\r\nEncoded date                   : UTC 2015-09-25 05:38:23\r\nWriting application            : mkvmerge v7.9.0 ('Birds') 64bit\r\nWriting library                : libebml v1.3.1 + libmatroska v1.4.2\r\n_STATISTICS_WRITING_APP        : mkvmerge v7.9.0 ('Birds') 64bit\r\n_STATISTICS_WRITING_DATE_UTC   : 2015-09-25 05:38:23\r\n_STATISTICS_TAGS               : BPS DURATION NUMBER_OF_FRAMES NUMBER_OF_BYTES\r\nDURATION                       : 01:57:11.438000000\r\nNUMBER_OF_FRAMES               : 1370\r\nNUMBER_OF_BYTES                : 35263\r\n\r\nVideo\r\nID                             : 1\r\nFormat                         : AVC\r\nFormat/Info                    : Advanced Video Codec\r\nFormat profile                 :   \r\nFormat settings, CABAC         : Yes\r\nFormat settings, ReFrames      : 5 frames\r\nCodec ID                       : V_MPEG4/ISO/AVC\r\nDuration                       : 2h 5mn\r\nBit rate                       : 5 582 Kbps\r\nWidth                          : 1 280 pixels\r\nHeight                         : 536 pixels\r\nDisplay aspect ratio           : 2.40:1\r\nFrame rate mode                : Constant\r\nFrame rate                     : 23.976 fps\r\nColor space                    : YUV\r\nChroma subsampling             : 4:2:0\r\nBit depth                      : 8 bits\r\nScan type                      : Progressive\r\nBits/(Pixel*Frame)             : 0.339\r\nStream size                    : 4.79 GiB (88%)\r\nWriting library                : x264 core 148 r2597 e86f3a1\r\nEncoding settings              : cabac=1 / ref=5 / deblock=1:0:0 / analyse=0x3:0x133 / me=umh / subme=7 / psy=1 / psy_rd=1.00:0.00 / mixed_ref=1 / me_range=16 / chroma_me=1 / trellis=1 / 8x8dct=1 / cqm=0 / deadzone=21,11 / fast_pskip=0 / chroma_qp_offset=-2 / threads=17 / lookahead_threads=2 / sliced_threads=0 / nr=0 / decimate=1 / interlaced=0 / bluray_compat=0 / constrained_intra=0 / bframes=3 / b_pyramid=2 / b_adapt=1 / b_bias=0 / direct=1 / weightb=1 / open_gop=0 / weightp=2 / keyint=250 / keyint_min=23 / scenecut=40 / intra_refresh=0 / rc_lookahead=40 / rc=2pass / mbtree=1 / bitrate=5582 / ratetol=1.0 / qcomp=0.60 / qpmin=0 / qpmax=69 / qpstep=4 / cplxblur=20.0 / qblur=0.5 / ip_ratio=1.40 / aq=1:1.00\r\nLanguage                       : English\r\nDefault                        : Yes\r\nForced                         : No\r\n_STATISTICS_WRITING_APP        : mkvmerge v7.9.0 ('Birds') 64bit\r\n_STATISTICS_WRITING_DATE_UTC   : 2015-09-25 05:38:23\r\n_STATISTICS_TAGS               : BPS DURATION NUMBER_OF_FRAMES NUMBER_OF_BYTES\r\nDURATION                       : 02:05:43.006000000\r\nNUMBER_OF_FRAMES               : 180851\r\nNUMBER_OF_BYTES                : 5262304859\r\n\r\nAudio\r\nID                             : 2\r\nFormat                         : AC-3\r\nFormat/Info                    : Audio Coding 3\r\nMode extension                 : CM (complete main)\r\nFormat settings, Endianness    : Big\r\nCodec ID                       : A_AC3\r\nDuration                       : 2h 5mn\r\nBit rate mode                  : Constant\r\nBit rate                       : 640 Kbps\r\nChannel(s)                     : 6 channels\r\nChannel positions              : Front: L C R, Side: L R, LFE\r\nSampling rate                  : 48.0 KHz\r\nCompression mode               : Lossy\r\nStream size                    : 575 MiB (10%)\r\nLanguage                       : English\r\nDefault                        : Yes\r\nForced                         : No\r\n\r\nText\r\nID                             : 3\r\nFormat                         : UTF-8\r\nCodec ID                       : S_TEXT/UTF8\r\nCodec ID/Info                  : UTF-8 Plain Text\r\nTitle                          : ????\r\nLanguage                       : Chinese\r\nDefault                        : Yes\r\nForced                         : No\r\n\r\nMenu\r\n00:00:00.000                   : en:00:00:00.000\r\n00:07:40.335                   : en:00:07:40.335\r\n00:14:20.735                   : en:00:14:20.735\r\n00:20:31.564                   : en:00:20:31.564\r\n00:27:48.417                   : en:00:27:48.417\r\n00:34:54.801                   : en:00:34:54.801\r\n00:41:02.627                   : en:00:41:02.627\r\n00:46:28.786                   : en:00:46:28.786\r\n00:53:05.516                   : en:00:53:05.516\r\n01:01:00.240                   : en:01:01:00.240\r\n01:08:22.557                   : en:01:08:22.557\r\n01:14:43.813                   : en:01:14:43.813\r\n01:21:31.261                   : en:01:21:31.261\r\n01:31:01.706                   : en:01:31:01.706\r\n01:38:42.750                   : en:01:38:42.750\r\n01:45:41.085                   : en:01:45:41.085\r\n01:52:48.971                   : en:01:52:48.971\r\n01:58:00.115                   : en:01:58:00.115","torrent":{"xt":"urn:btih:fd4182c3e18cde8959d0802a1ad0ce8668b00ec0","amp;dn":"Terminator.Genisys.2015.720p.BluRay.AC3.x264-SHOW","amp;tr":["udp%3A%2F%2Ftracker.leechers-paradise.org%3A6969","udp%3A%2F%2Fzer0day.ch%3A1337","udp%3A%2F%2Fopen.demonii.com%3A1337","udp%3A%2F%2Ftracker.coppersurfer.tk%3A6969","udp%3A%2F%2Fexodus.desync.com%3A6969"],"infoHash":"fd4182c3e18cde8959d0802a1ad0ce8668b00ec0","infoHashBuffer":{"type":"Buffer","data":[253,65,130,195,225,140,222,137,89,208,128,42,26,208,206,134,104,176,14,192]},"announce":[],"urlList":[]}}